Coordinates
version=1
nRows=16
nColumns=30
inDegrees=yes

Units are S.I. units (second, meters, Newtons, ...)
Angles are in degrees.

endheader
time	floatyaw	floatroll	floatpitch	floatx	floaty	floatz	pro_sup_l	deviation_l	flexion_l	cmc_flexion_l	cmc_abduction_l	mp_flexion_l	ip_flexion_l	2mcp_flexion_l	2mcp_abduction_l	2pm_flexion_l	2md_flexion_l	3mcp_flexion_l	3mcp_abduction_l	3pm_flexion_l	3md_flexion_l	4mcp_flexion_l	4mcp_abduction_l	4pm_flexion_l	4md_flexion_l	5mcp_flexion_l	5mcp_abduction_l	5pm_flexion_l	5md_flexion_l
-0.495000	-3.835761	-5.011433	94.526577	-0.005998	-0.266855	-0.001764	93.014708	-0.979029	-1.048144	26.738090	3.055873	-17.846098	-31.340160	18.478920	7.269022	33.588581	20.662824	8.445117	5.048475	35.631532	21.480619	-2.523671	-3.819934	52.106612	32.229217	-23.842999	-11.930539	63.821087	49.785415
-0.485000	-3.835761	-5.011433	94.526577	-0.005339	-0.265967	-0.000647	92.860274	-1.104460	-0.740228	26.184399	3.458665	-17.589552	-30.609067	18.900457	7.358562	33.207357	20.621848	8.695226	5.080639	35.409068	21.522907	-2.481568	-3.799350	51.932439	32.218182	-23.503303	-12.097348	63.430155	49.386881
-0.475000	-3.835761	-5.011433	94.526577	-0.004413	-0.264827	0.000706	92.651680	-1.169421	-0.370507	25.512346	3.933570	-17.298901	-29.816438	19.412546	7.447709	32.804053	20.552796	9.023161	5.122212	35.155762	21.567368	-2.346581	-3.764289	51.741656	32.163932	-22.871074	-12.253455	62.797573	48.797899
-0.465000	-3.835761	-5.011433	94.526577	-0.003195	-0.263453	0.002334	92.380965	-1.133951	0.045726	24.709865	4.475394	-17.003715	-28.974209	20.023455	7.525064	32.367221	20.424977	9.458407	5.180024	34.833293	21.586119	-2.095679	-3.726228	51.504654	32.048527	-21.881071	-12.372194	61.836561	47.996139
-0.455000	-3.835761	-5.011433	94.526577	-0.001667	-0.261870	0.004278	92.045950	-0.961123	0.485473	23.762964	5.089392	-16.734604	-28.076414	20.762039	7.583264	31.853846	20.205396	10.043791	5.259642	34.391963	21.555714	-1.702657	-3.697659	51.178802	31.873410	-20.492357	-12.433998	60.493735	46.975454
-0.445000	-3.835761	-5.011433	94.526577	0.000198	-0.260099	0.006568	91.648841	-0.621496	0.922053	22.658612	5.795329	-16.513229	-27.105582	21.670326	7.619914	31.206323	19.871659	10.822441	5.359606	33.791736	21.467668	-1.134043	-3.684662	50.721246	31.658607	-18.703108	-12.428650	58.784954	45.751239
-0.435000	-3.835761	-5.011433	94.526577	0.002438	-0.258152	0.009217	91.196185	-0.097303	1.333074	21.392183	6.617503	-16.345664	-26.048288	22.782665	7.637317	30.380973	19.422320	11.820998	5.469156	33.019371	21.330052	-0.359225	-3.682720	50.103744	31.435549	-16.568111	-12.355524	56.802412	44.368444
-0.425000	-3.835761	-5.011433	94.526577	0.005095	-0.256039	0.012223	90.701552	0.614432	1.708622	19.979024	7.565316	-16.223176	-24.913893	24.102349	7.641701	29.375708	18.880339	13.037335	5.571597	32.095813	21.160635	0.628892	-3.679021	49.324394	31.238133	-14.204388	-12.223540	54.688334	42.904242
-0.415000	-3.835761	-5.011433	94.526577	0.008206	-0.253771	0.015578	90.189168	1.501386	2.054740	18.463092	8.616730	-16.129386	-23.744463	25.589831	7.641515	28.242599	18.288174	14.438917	5.651092	31.072951	20.977308	1.799077	-3.659405	48.411638	31.095056	-11.772751	-12.050010	52.593701	41.458823
-0.405000	-3.835761	-5.011433	94.526577	0.011789	-0.251375	0.019270	89.695383	2.538887	2.390287	16.913318	9.715207	-16.048282	-22.606016	27.170620	7.644663	27.076490	17.695989	15.972992	5.698632	30.020644	20.791265	3.087035	-3.614919	47.417890	31.024190	-9.439882	-11.856229	50.646257	40.134557
-0.395000	-3.835761	-5.011433	94.526577	0.015839	-0.248893	0.023292	89.264941	3.695132	2.739051	15.405104	10.782958	-15.968063	-21.563239	28.759186	7.656095	25.983062	17.147076	17.583307	5.714505	29.007305	20.605160	4.418818	-3.544364	46.404765	31.029589	-7.340073	-11.660436	48.937040	39.010162
-0.385000	-3.835761	-5.011433	94.526577	0.020327	-0.246376	0.027630	88.940890	4.935876	3.121067	13.994799	11.745691	-15.880439	-20.652002	30.285523	7.677489	25.042141	16.666126	19.223854	5.707248	28.081062	20.415655	5.736404	-3.452897	45.426213	31.102289	-5.553564	-11.472776	47.517428	38.120087
-0.375000	-3.835761	-5.011433	94.526577	0.025213	-0.243886	0.032267	88.751227	6.226441	3.547289	12.701009	12.558698	-15.778839	-19.866314	31.710410	7.709220	24.285454	16.255382	20.862430	5.690407	27.260252	20.218571	7.010404	-3.348963	44.516517	31.225032	-4.104404	-11.296779	46.398122	37.449213
-0.365000	-3.835761	-5.011433	94.526577	0.030448	-0.241487	0.037179	88.699145	7.531669	4.019918	11.503546	13.222692	-15.658663	-19.167476	33.023286	7.752826	23.699500	15.900549	22.474314	5.678291	26.538350	20.014566	8.236570	-3.241525	43.687468	31.379107	-2.970193	-11.136483	45.552058	36.946577
-0.355000	-3.835761	-5.011433	94.526577	0.035989	-0.239252	0.042338	88.763534	8.816576	4.537004	10.360581	13.782011	-15.519547	-18.509407	34.227301	7.812016	23.248905	15.583586	24.033269	5.681846	25.900169	19.812933	9.422963	-3.138454	42.934308	31.550329	-2.095913	-11.002947	44.926399	36.550865
-0.345000	-3.835761	-5.011433	94.526577	0.041801	-0.237255	0.047713	88.911235	10.049640	5.097111	9.233933	14.306595	-15.367361	-17.865040	35.322814	7.891548	22.903774	15.295567	25.508024	5.706011	25.338816	19.630984	10.576998	-3.046044	42.245571	31.731619	-1.409366	-10.914323	44.461347	36.213718
